# Made in Blockbench 4.12.6
mtllib computer_normal.mtl

o base
v 0.3125 0.875 0.03125
v 0.3125 0.875 -0.03125
v 0.3125 0.125 0.03125
v 0.3125 0.125 -0.03125
v -0.3125 0.875 -0.03125
v -0.3125 0.875 0.03125
v -0.3125 0.125 -0.03125
v -0.3125 0.125 0.03125
vt 0.8125 0.875
vt 0.1875 0.875
vt 0.1875 0.125
vt 0.8125 0.125
vt 0.8125 0.875
vt 0.875 0.875
vt 0.875 0.125
vt 0.8125 0.125
vt 0.1875 0.875
vt 0.8125 0.875
vt 0.8125 0.125
vt 0.1875 0.125
vt 0.125 0.875
vt 0.1875 0.875
vt 0.1875 0.125
vt 0.125 0.125
vt 0.1875 0.9375
vt 0.8125 0.9375
vt 0.8125 0.875
vt 0.1875 0.875
vt 0.1875 0.125
vt 0.8125 0.125
vt 0.8125 0.0625
vt 0.1875 0.0625
vn 0 0 -1
vn 1 0 0
vn 0 0 1
vn -1 0 0
vn 0 1 0
vn 0 -1 0
usemtl m_15958713-8cd5-e910-aeb9-187145df45ac
f 4/4/1 7/3/1 5/2/1 2/1/1
f 3/8/2 4/7/2 2/6/2 1/5/2
f 8/12/3 3/11/3 1/10/3 6/9/3
f 7/16/4 8/15/4 6/14/4 5/13/4
f 6/20/5 1/19/5 2/18/5 5/17/5
f 7/24/6 4/23/6 3/22/6 8/21/6